# xmcd
#
# Track frame offsets:
#	150
#	20177
#	36092
#	63285
#	85970
#	111337
#	134362
#	154930
#	174855
#	191795
#	206762
#	228317
#
# Disc length: 3636 seconds
#
# Revision: 2
# Processed by: cddbd v1.5.2PL0 Copyright (c) Steve Scherf et al.
# Submitted via: audiograbber 1.83.01
#
DISCID=a60e320c
DTITLE=Muddy Waters - Blues Sky
DYEAR=1992
DGENRE=Blues
TTITLE0=Jealous Hearted Man
TTITLE1=I Can't Be Satisfied
TTITLE2=Crosseyed Cat
TTITLE3=Who Do You Trust
TTITLE4=Mamie
TTITLE5=Screamin' And Cryin'
TTITLE6=Too Young To Know
TTITLE7=Forever Lonely
TTITLE8=I Feel Like Going Home
TTITLE9=(My Eyes) Keep Me In Trouble
TTITLE10=Streamline Woman (Live)
TTITLE11=Deep Down In Florida (Live)
EXTD=ID3G:   0
EXTT0=
EXTT1=
EXTT2=
EXTT3=
EXTT4=
EXTT5=
EXTT6=
EXTT7=
EXTT8=
EXTT9=
EXTT10=
EXTT11=
PLAYORDER=
